{
  "accessors": [
    {
      "bufferView": 2,
      "componentType": 5126,
      "count": 31362,
      "max": [
        0.09977050125598907,
        0.09002186357975006,
        0.08152782917022705
      ],
      "min": [
        -0.14895442128181458,
        -0.06267841160297394,
        -0.11235251277685165
      ],
      "type": "VEC3"
    },
    {
      "bufferView": 2,
      "byteOffset": 376344,
      "componentType": 5126,
      "count": 31362,
      "max": [
        0.9999993443489075,
        0.9999997019767761,
        0.9999995827674866
      ],
      "min": [
        -0.9999992847442627,
        -0.9999962449073792,
        -0.9999990463256836
      ],
      "type": "VEC3"
    },
    {
      "bufferView": 1,
      "componentType": 5126,
      "count": 31362,
      "max": [
        0.987191915512085,
        0.9999549984931946
      ],
      "min": [
        1.1237409125897102e-05,
        5.857518408447504e-05
      ],
      "type": "VEC2"
    },
    {
      "bufferView": 1,
      "byteOffset": 250896,
      "componentType": 5126,
      "count": 31362,
      "max": [
        0.987191915512085,
        0.9999549984931946
      ],
      "min": [
        1.1237409125897102e-05,
        5.857518408447504e-05
      ],
      "type": "VEC2"
    },
    {
      "bufferView": 1,
      "byteOffset": 501792,
      "componentType": 5126,
      "count": 31362,
      "max": [
        0.987191915512085,
        0.9999549984931946
      ],
      "min": [
        1.1237409125897102e-05,
        5.857518408447504e-05
      ],
      "type": "VEC2"
    },
    {
      "bufferView": 0,
      "componentType": 5125,
      "count": 148686,
      "type": "SCALAR"
    }
  ],
  "asset": {
    "extras": {
      "author": "Milkislegit (https://sketchfab.com/8053498054380548)",
      "license": "CC-BY-4.0 (http://creativecommons.org/licenses/by/4.0/)",
      "source": "https://sketchfab.com/3d-models/harry-potter-books-stack-b08a7135cad84e0ca222a8cff075109b",
      "title": "Harry Potter Books Stack"
    },
    "generator": "Sketchfab-12.68.0",
    "version": "2.0"
  },
  "bufferViews": [
    {
      "buffer": 0,
      "byteLength": 594744,
      "name": "floatBufferViews",
      "target": 34963
    },
    {
      "buffer": 0,
      "byteLength": 752688,
      "byteOffset": 594744,
      "byteStride": 8,
      "name": "floatBufferViews",
      "target": 34962
    },
    {
      "buffer": 0,
      "byteLength": 752688,
      "byteOffset": 1347432,
      "byteStride": 12,
      "name": "floatBufferViews",
      "target": 34962
    }
  ],
  "buffers": [
    {
      "byteLength": 2100120,
      "uri": "scene.bin"
    }
  ],
  "extensionsUsed": [
    "KHR_materials_unlit"
  ],
  "images": [
    {
      "uri": "textures/material_0_baseColor.jpeg"
    }
  ],
  "materials": [
    {
      "extensions": {
        "KHR_materials_unlit": {}
      },
      "name": "material_0",
      "pbrMetallicRoughness": {
        "baseColorTexture": {
          "index": 0
        },
        "metallicFactor": 0.0
      }
    }
  ],
  "meshes": [
    {
      "name": "Object_0",
      "primitives": [
        {
          "attributes": {
            "NORMAL": 1,
            "POSITION": 0,
            "TEXCOORD_0": 2,
            "TEXCOORD_1": 3,
            "TEXCOORD_2": 4
          },
          "indices": 5,
          "material": 0,
          "mode": 4
        }
      ]
    }
  ],
  "nodes": [
    {
      "children": [
        1
      ],
      "matrix": [
        1.0,
        0.0,
        0.0,
        0.0,
        0.0,
        2.220446049250313e-16,
        -1.0,
        0.0,
        0.0,
        1.0,
        2.220446049250313e-16,
        0.0,
        0.0,
        0.0,
        0.0,
        1.0
      ],
      "name": "Sketchfab_model"
    },
    {
      "children": [
        2
      ],
      "name": "root"
    },
    {
      "children": [
        3
      ],
      "matrix": [
        1.0,
        0.0,
        0.0,
        0.0,
        0.0,
        2.220446049250313e-16,
        1.0,
        0.0,
        0.0,
        -1.0,
        2.220446049250313e-16,
        0.0,
        0.0,
        0.0,
        0.0,
        1.0
      ],
      "name": "GLTF_SceneRootNode"
    },
    {
      "children": [
        4
      ],
      "name": "_0"
    },
    {
      "mesh": 0,
      "name": "Object_4"
    }
  ],
  "samplers": [
    {
      "magFilter": 9729,
      "minFilter": 9987,
      "wrapS": 10497,
      "wrapT": 10497
    }
  ],
  "scene": 0,
  "scenes": [
    {
      "name": "Sketchfab_Scene",
      "nodes": [
        0
      ]
    }
  ],
  "textures": [
    {
      "sampler": 0,
      "source": 0
    }
  ]
}
